# xmcd
#
# Track frame offsets: 
#        150
#        28105
#        43245
#        54102
#        68541
#        80698
#        94937
#        115488
#        126960
#        151279
#        165716
#        183585
#        203099
#
# Disc length: 2893 seconds
#
# Revision: 0
# Processed by: cddbd v1.5.2PL0 Copyright (c) Steve Scherf et al.
# Submitted via: ExactAudioCopy v1.3
#
DISCID=b00b4b0d
DTITLE=Patrick Recob - Perpetual Luau
DYEAR=2017
DGENRE=Blues
TTITLE0=Frustration Blues
TTITLE1=We Have Got It Going On
TTITLE2=Words Are Like Bullets
TTITLE3=Dark Night Of The Soul
TTITLE4=Ballad Of Maison 66
TTITLE5=Let Me Give You All
TTITLE6=I Kept My Cool
TTITLE7=LaMieux's Jungle Strut
TTITLE8=Help Is On The Way
TTITLE9=Grave Yard Woman
TTITLE10=Soul Cry
TTITLE11=Find The Answer
TTITLE12=For Love's Desire
EXTD=
EXTT0=
EXTT1=
EXTT2=
EXTT3=
EXTT4=
EXTT5=
EXTT6=
EXTT7=
EXTT8=
EXTT9=
EXTT10=
EXTT11=
EXTT12=
PLAYORDER=
